<mxfile host="app.diagrams.net" modified="2024-06-22T18:09:19.380Z" agent="Mozilla/5.0 (Macintosh; Intel Mac OS X 10_15_7) AppleWebKit/537.36 (KHTML, like Gecko) Chrome/126.0.0.0 Safari/537.36" etag="z0xZVriEUlmKJQoctPoC" version="24.5.5" type="device">
  <diagram name="Page-1" id="aE6Y0Q2C2fKLYAlWAU1h">
    <mxGraphModel dx="1003" dy="2311" grid="1" gridSize="10" guides="1" tooltips="1" connect="1" arrows="1" fold="1" page="1" pageScale="1" pageWidth="850" pageHeight="1100" math="0" shadow="0">
      <root>
        <mxCell id="0" />
        <mxCell id="1" parent="0" />
        <mxCell id="h_FpJBeQjptq8Fpw-Ke8-3" value="" style="edgeStyle=orthogonalEdgeStyle;rounded=0;orthogonalLoop=1;jettySize=auto;html=1;" edge="1" parent="1" source="h_FpJBeQjptq8Fpw-Ke8-1" target="h_FpJBeQjptq8Fpw-Ke8-2">
          <mxGeometry relative="1" as="geometry" />
        </mxCell>
        <mxCell id="h_FpJBeQjptq8Fpw-Ke8-1" value="" style="html=1;verticalLabelPosition=bottom;align=center;labelBackgroundColor=#ffffff;verticalAlign=top;strokeWidth=2;strokeColor=#0080F0;shadow=0;dashed=0;shape=mxgraph.ios7.icons.user;" vertex="1" parent="1">
          <mxGeometry x="280" y="255" width="40" height="40" as="geometry" />
        </mxCell>
        <mxCell id="h_FpJBeQjptq8Fpw-Ke8-5" value="" style="edgeStyle=orthogonalEdgeStyle;rounded=0;orthogonalLoop=1;jettySize=auto;html=1;" edge="1" parent="1" source="h_FpJBeQjptq8Fpw-Ke8-2" target="h_FpJBeQjptq8Fpw-Ke8-4">
          <mxGeometry relative="1" as="geometry">
            <Array as="points">
              <mxPoint x="460" y="376" />
            </Array>
          </mxGeometry>
        </mxCell>
        <mxCell id="h_FpJBeQjptq8Fpw-Ke8-2" value="" style="image;html=1;image=img/lib/clip_art/computers/Server_128x128.png" vertex="1" parent="1">
          <mxGeometry x="420" y="235" width="80" height="80" as="geometry" />
        </mxCell>
        <mxCell id="h_FpJBeQjptq8Fpw-Ke8-4" value="" style="image;sketch=0;aspect=fixed;html=1;points=[];align=center;fontSize=12;image=img/lib/mscae/Cache_Redis_Product.svg;" vertex="1" parent="1">
          <mxGeometry x="600" y="355" width="50" height="42" as="geometry" />
        </mxCell>
        <mxCell id="h_FpJBeQjptq8Fpw-Ke8-9" value="" style="group" vertex="1" connectable="0" parent="1">
          <mxGeometry x="600" y="235" width="50" height="77" as="geometry" />
        </mxCell>
        <mxCell id="h_FpJBeQjptq8Fpw-Ke8-6" value="" style="image;aspect=fixed;perimeter=ellipsePerimeter;html=1;align=center;shadow=0;dashed=0;spacingTop=3;image=img/lib/active_directory/database.svg;" vertex="1" parent="h_FpJBeQjptq8Fpw-Ke8-9">
          <mxGeometry width="50" height="37" as="geometry" />
        </mxCell>
        <mxCell id="h_FpJBeQjptq8Fpw-Ke8-7" value="" style="image;aspect=fixed;perimeter=ellipsePerimeter;html=1;align=center;shadow=0;dashed=0;spacingTop=3;image=img/lib/active_directory/database.svg;" vertex="1" parent="h_FpJBeQjptq8Fpw-Ke8-9">
          <mxGeometry y="20" width="50" height="37" as="geometry" />
        </mxCell>
        <mxCell id="h_FpJBeQjptq8Fpw-Ke8-8" value="" style="image;aspect=fixed;perimeter=ellipsePerimeter;html=1;align=center;shadow=0;dashed=0;spacingTop=3;image=img/lib/active_directory/database.svg;" vertex="1" parent="h_FpJBeQjptq8Fpw-Ke8-9">
          <mxGeometry y="40" width="50" height="37" as="geometry" />
        </mxCell>
        <mxCell id="h_FpJBeQjptq8Fpw-Ke8-13" value="" style="edgeStyle=none;orthogonalLoop=1;jettySize=auto;html=1;rounded=0;exitX=1;exitY=0.5;exitDx=0;exitDy=0;" edge="1" parent="1" source="h_FpJBeQjptq8Fpw-Ke8-2">
          <mxGeometry width="100" relative="1" as="geometry">
            <mxPoint x="490" y="325" as="sourcePoint" />
            <mxPoint x="600" y="275" as="targetPoint" />
            <Array as="points" />
          </mxGeometry>
        </mxCell>
        <mxCell id="h_FpJBeQjptq8Fpw-Ke8-14" value="User" style="text;html=1;align=center;verticalAlign=middle;resizable=0;points=[];autosize=1;strokeColor=none;fillColor=none;" vertex="1" parent="1">
          <mxGeometry x="270" y="305" width="50" height="30" as="geometry" />
        </mxCell>
        <mxCell id="h_FpJBeQjptq8Fpw-Ke8-15" value="Request&lt;div&gt;data&lt;/div&gt;" style="text;html=1;align=center;verticalAlign=middle;resizable=0;points=[];autosize=1;strokeColor=none;fillColor=none;" vertex="1" parent="1">
          <mxGeometry x="325" y="238" width="70" height="40" as="geometry" />
        </mxCell>
        <mxCell id="h_FpJBeQjptq8Fpw-Ke8-16" value="querying" style="text;html=1;align=center;verticalAlign=middle;resizable=0;points=[];autosize=1;strokeColor=none;fillColor=none;" vertex="1" parent="1">
          <mxGeometry x="515" y="243" width="70" height="30" as="geometry" />
        </mxCell>
        <mxCell id="h_FpJBeQjptq8Fpw-Ke8-19" value="redis cache look" style="text;html=1;align=center;verticalAlign=middle;resizable=0;points=[];autosize=1;strokeColor=none;fillColor=none;" vertex="1" parent="1">
          <mxGeometry x="470" y="335" width="110" height="30" as="geometry" />
        </mxCell>
        <mxCell id="h_FpJBeQjptq8Fpw-Ke8-20" value="" style="edgeStyle=orthogonalEdgeStyle;rounded=0;orthogonalLoop=1;jettySize=auto;html=1;startArrow=block;startFill=1;endArrow=none;endFill=0;" edge="1" parent="1" source="h_FpJBeQjptq8Fpw-Ke8-21" target="h_FpJBeQjptq8Fpw-Ke8-23">
          <mxGeometry relative="1" as="geometry" />
        </mxCell>
        <mxCell id="h_FpJBeQjptq8Fpw-Ke8-21" value="" style="html=1;verticalLabelPosition=bottom;align=center;labelBackgroundColor=#ffffff;verticalAlign=top;strokeWidth=2;strokeColor=#0080F0;shadow=0;dashed=0;shape=mxgraph.ios7.icons.user;" vertex="1" parent="1">
          <mxGeometry x="280" y="455" width="40" height="40" as="geometry" />
        </mxCell>
        <mxCell id="h_FpJBeQjptq8Fpw-Ke8-22" value="" style="edgeStyle=orthogonalEdgeStyle;rounded=0;orthogonalLoop=1;jettySize=auto;html=1;startArrow=block;startFill=1;endArrow=none;endFill=0;" edge="1" parent="1" source="h_FpJBeQjptq8Fpw-Ke8-23" target="h_FpJBeQjptq8Fpw-Ke8-24">
          <mxGeometry relative="1" as="geometry">
            <Array as="points">
              <mxPoint x="460" y="576" />
            </Array>
          </mxGeometry>
        </mxCell>
        <mxCell id="h_FpJBeQjptq8Fpw-Ke8-23" value="" style="image;html=1;image=img/lib/clip_art/computers/Server_128x128.png" vertex="1" parent="1">
          <mxGeometry x="420" y="435" width="80" height="80" as="geometry" />
        </mxCell>
        <mxCell id="h_FpJBeQjptq8Fpw-Ke8-24" value="" style="image;sketch=0;aspect=fixed;html=1;points=[];align=center;fontSize=12;image=img/lib/mscae/Cache_Redis_Product.svg;" vertex="1" parent="1">
          <mxGeometry x="600" y="555" width="50" height="42" as="geometry" />
        </mxCell>
        <mxCell id="h_FpJBeQjptq8Fpw-Ke8-30" value="User" style="text;html=1;align=center;verticalAlign=middle;resizable=0;points=[];autosize=1;strokeColor=none;fillColor=none;" vertex="1" parent="1">
          <mxGeometry x="270" y="505" width="50" height="30" as="geometry" />
        </mxCell>
        <mxCell id="h_FpJBeQjptq8Fpw-Ke8-31" value="Response&lt;div&gt;sent&lt;/div&gt;" style="text;html=1;align=center;verticalAlign=middle;resizable=0;points=[];autosize=1;strokeColor=none;fillColor=none;" vertex="1" parent="1">
          <mxGeometry x="320" y="438" width="80" height="40" as="geometry" />
        </mxCell>
        <mxCell id="h_FpJBeQjptq8Fpw-Ke8-33" value="if data exists in&amp;nbsp;&lt;div&gt;redis cache&lt;/div&gt;" style="text;html=1;align=center;verticalAlign=middle;resizable=0;points=[];autosize=1;strokeColor=none;fillColor=none;" vertex="1" parent="1">
          <mxGeometry x="460" y="535" width="110" height="40" as="geometry" />
        </mxCell>
        <mxCell id="h_FpJBeQjptq8Fpw-Ke8-35" value="data sent to server" style="text;html=1;align=center;verticalAlign=middle;resizable=0;points=[];autosize=1;strokeColor=none;fillColor=none;" vertex="1" parent="1">
          <mxGeometry x="465" y="575" width="120" height="30" as="geometry" />
        </mxCell>
        <mxCell id="h_FpJBeQjptq8Fpw-Ke8-36" value="" style="edgeStyle=orthogonalEdgeStyle;rounded=0;orthogonalLoop=1;jettySize=auto;html=1;startArrow=blockThin;startFill=1;endArrow=none;endFill=0;" edge="1" parent="1" source="h_FpJBeQjptq8Fpw-Ke8-37" target="h_FpJBeQjptq8Fpw-Ke8-39">
          <mxGeometry relative="1" as="geometry" />
        </mxCell>
        <mxCell id="h_FpJBeQjptq8Fpw-Ke8-37" value="" style="html=1;verticalLabelPosition=bottom;align=center;labelBackgroundColor=#ffffff;verticalAlign=top;strokeWidth=2;strokeColor=#0080F0;shadow=0;dashed=0;shape=mxgraph.ios7.icons.user;" vertex="1" parent="1">
          <mxGeometry x="270" y="712" width="40" height="40" as="geometry" />
        </mxCell>
        <mxCell id="h_FpJBeQjptq8Fpw-Ke8-38" value="" style="edgeStyle=orthogonalEdgeStyle;rounded=0;orthogonalLoop=1;jettySize=auto;html=1;" edge="1" parent="1" source="h_FpJBeQjptq8Fpw-Ke8-39" target="h_FpJBeQjptq8Fpw-Ke8-40">
          <mxGeometry relative="1" as="geometry">
            <Array as="points">
              <mxPoint x="450" y="833" />
            </Array>
          </mxGeometry>
        </mxCell>
        <mxCell id="h_FpJBeQjptq8Fpw-Ke8-39" value="" style="image;html=1;image=img/lib/clip_art/computers/Server_128x128.png" vertex="1" parent="1">
          <mxGeometry x="410" y="692" width="80" height="80" as="geometry" />
        </mxCell>
        <mxCell id="h_FpJBeQjptq8Fpw-Ke8-40" value="" style="image;sketch=0;aspect=fixed;html=1;points=[];align=center;fontSize=12;image=img/lib/mscae/Cache_Redis_Product.svg;" vertex="1" parent="1">
          <mxGeometry x="590" y="812" width="50" height="42" as="geometry" />
        </mxCell>
        <mxCell id="h_FpJBeQjptq8Fpw-Ke8-41" value="" style="group" vertex="1" connectable="0" parent="1">
          <mxGeometry x="590" y="692" width="50" height="77" as="geometry" />
        </mxCell>
        <mxCell id="h_FpJBeQjptq8Fpw-Ke8-42" value="" style="image;aspect=fixed;perimeter=ellipsePerimeter;html=1;align=center;shadow=0;dashed=0;spacingTop=3;image=img/lib/active_directory/database.svg;" vertex="1" parent="h_FpJBeQjptq8Fpw-Ke8-41">
          <mxGeometry width="50" height="37" as="geometry" />
        </mxCell>
        <mxCell id="h_FpJBeQjptq8Fpw-Ke8-43" value="" style="image;aspect=fixed;perimeter=ellipsePerimeter;html=1;align=center;shadow=0;dashed=0;spacingTop=3;image=img/lib/active_directory/database.svg;" vertex="1" parent="h_FpJBeQjptq8Fpw-Ke8-41">
          <mxGeometry y="20" width="50" height="37" as="geometry" />
        </mxCell>
        <mxCell id="h_FpJBeQjptq8Fpw-Ke8-44" value="" style="image;aspect=fixed;perimeter=ellipsePerimeter;html=1;align=center;shadow=0;dashed=0;spacingTop=3;image=img/lib/active_directory/database.svg;" vertex="1" parent="h_FpJBeQjptq8Fpw-Ke8-41">
          <mxGeometry y="40" width="50" height="37" as="geometry" />
        </mxCell>
        <mxCell id="h_FpJBeQjptq8Fpw-Ke8-45" value="" style="edgeStyle=none;orthogonalLoop=1;jettySize=auto;html=1;rounded=0;exitX=1;exitY=0.5;exitDx=0;exitDy=0;" edge="1" parent="1" source="h_FpJBeQjptq8Fpw-Ke8-39">
          <mxGeometry width="100" relative="1" as="geometry">
            <mxPoint x="480" y="782" as="sourcePoint" />
            <mxPoint x="590" y="732" as="targetPoint" />
            <Array as="points" />
          </mxGeometry>
        </mxCell>
        <mxCell id="h_FpJBeQjptq8Fpw-Ke8-46" value="User" style="text;html=1;align=center;verticalAlign=middle;resizable=0;points=[];autosize=1;strokeColor=none;fillColor=none;" vertex="1" parent="1">
          <mxGeometry x="260" y="762" width="50" height="30" as="geometry" />
        </mxCell>
        <mxCell id="h_FpJBeQjptq8Fpw-Ke8-47" value="Response&lt;div&gt;sent&lt;/div&gt;" style="text;html=1;align=center;verticalAlign=middle;resizable=0;points=[];autosize=1;strokeColor=none;fillColor=none;" vertex="1" parent="1">
          <mxGeometry x="310" y="695" width="80" height="40" as="geometry" />
        </mxCell>
        <mxCell id="h_FpJBeQjptq8Fpw-Ke8-48" value="querying" style="text;html=1;align=center;verticalAlign=middle;resizable=0;points=[];autosize=1;strokeColor=none;fillColor=none;" vertex="1" parent="1">
          <mxGeometry x="505" y="705" width="70" height="30" as="geometry" />
        </mxCell>
        <mxCell id="h_FpJBeQjptq8Fpw-Ke8-49" value="if data not exists&lt;div&gt;in redis cache&lt;/div&gt;" style="text;html=1;align=center;verticalAlign=middle;resizable=0;points=[];autosize=1;strokeColor=none;fillColor=none;" vertex="1" parent="1">
          <mxGeometry x="460" y="782" width="110" height="40" as="geometry" />
        </mxCell>
        <mxCell id="h_FpJBeQjptq8Fpw-Ke8-50" value="server writes data&lt;div&gt;in redis&lt;/div&gt;" style="text;html=1;align=center;verticalAlign=middle;resizable=0;points=[];autosize=1;strokeColor=none;fillColor=none;" vertex="1" parent="1">
          <mxGeometry x="455" y="842" width="120" height="40" as="geometry" />
        </mxCell>
        <mxCell id="h_FpJBeQjptq8Fpw-Ke8-51" value="Server" style="text;html=1;align=center;verticalAlign=middle;resizable=0;points=[];autosize=1;strokeColor=none;fillColor=none;" vertex="1" parent="1">
          <mxGeometry x="430" y="205" width="60" height="30" as="geometry" />
        </mxCell>
        <mxCell id="h_FpJBeQjptq8Fpw-Ke8-53" value="Database" style="text;html=1;align=center;verticalAlign=middle;resizable=0;points=[];autosize=1;strokeColor=none;fillColor=none;" vertex="1" parent="1">
          <mxGeometry x="585" y="205" width="70" height="30" as="geometry" />
        </mxCell>
        <mxCell id="h_FpJBeQjptq8Fpw-Ke8-54" value="Redis" style="text;html=1;align=center;verticalAlign=middle;resizable=0;points=[];autosize=1;strokeColor=none;fillColor=none;" vertex="1" parent="1">
          <mxGeometry x="600" y="405" width="50" height="30" as="geometry" />
        </mxCell>
        <mxCell id="h_FpJBeQjptq8Fpw-Ke8-55" value="Server" style="text;html=1;align=center;verticalAlign=middle;resizable=0;points=[];autosize=1;strokeColor=none;fillColor=none;" vertex="1" parent="1">
          <mxGeometry x="430" y="408" width="60" height="30" as="geometry" />
        </mxCell>
        <mxCell id="h_FpJBeQjptq8Fpw-Ke8-56" value="Server" style="text;html=1;align=center;verticalAlign=middle;resizable=0;points=[];autosize=1;strokeColor=none;fillColor=none;" vertex="1" parent="1">
          <mxGeometry x="420" y="665" width="60" height="30" as="geometry" />
        </mxCell>
        <mxCell id="h_FpJBeQjptq8Fpw-Ke8-57" value="Redis" style="text;html=1;align=center;verticalAlign=middle;resizable=0;points=[];autosize=1;strokeColor=none;fillColor=none;" vertex="1" parent="1">
          <mxGeometry x="590" y="865" width="50" height="30" as="geometry" />
        </mxCell>
        <mxCell id="h_FpJBeQjptq8Fpw-Ke8-58" value="Redis" style="text;html=1;align=center;verticalAlign=middle;resizable=0;points=[];autosize=1;strokeColor=none;fillColor=none;" vertex="1" parent="1">
          <mxGeometry x="600" y="605" width="50" height="30" as="geometry" />
        </mxCell>
        <mxCell id="h_FpJBeQjptq8Fpw-Ke8-59" value="Database" style="text;html=1;align=center;verticalAlign=middle;resizable=0;points=[];autosize=1;strokeColor=none;fillColor=none;" vertex="1" parent="1">
          <mxGeometry x="580" y="662" width="70" height="30" as="geometry" />
        </mxCell>
      </root>
    </mxGraphModel>
  </diagram>
</mxfile>
